<svg xmlns="http://www.w3.org/2000/svg" xmlns:xlink="http://www.w3.org/1999/xlink" version="1.1" id="Layer_1" x="0px" y="0px" width="100px" height="99.864px" viewBox="0 0 100 99.864" enable-background="new 0 0 100 99.864" xml:space="preserve">
<path fill="#000000" d="M38.503,68.812c1.849,4.726,6.16,8.078,11.54,8.078c5.381,0,9.692-3.353,11.54-8.078H38.503z"/>
<path fill="#000000" d="M44.273,53.234c0,2.23-1.808,4.038-4.039,4.038s-4.039-1.808-4.039-4.038c0-2.231,1.808-4.039,4.039-4.039  S44.273,51.002,44.273,53.234"/>
<path fill="#000000" d="M63.892,53.234c0,2.23-1.808,4.038-4.039,4.038s-4.039-1.808-4.039-4.038c0-2.231,1.808-4.039,4.039-4.039  S63.892,51.002,63.892,53.234"/>
<path fill="#000000" d="M77.739,58.426c0-15.296-12.4-27.696-27.696-27.696c-15.297,0-27.695,12.4-27.695,27.696  c0,8.205,3.57,15.573,9.238,20.646c-0.126,0.525-0.219,0.816-0.221,0.823c-0.174,0.52-0.038,1.091,0.347,1.478l3.463,3.462  c0.276,0.277,0.646,0.423,1.021,0.423h0.012c0.782-0.049,1.453-0.643,1.453-1.443c0-0.137-0.02-0.271-0.054-0.396  c-0.009-0.083-0.019-0.173-0.024-0.259c3.745,1.892,7.977,2.964,12.461,2.964c4.483,0,8.714-1.072,12.462-2.964  c-0.016,0.171-0.031,0.348-0.049,0.512c-0.062,0.606,0.266,1.187,0.815,1.448c0.198,0.093,0.41,0.139,0.62,0.139  c0.374,0,0.743-0.146,1.019-0.423l3.462-3.462c0.386-0.385,0.521-0.956,0.352-1.474c-0.004-0.009-0.097-0.299-0.226-0.827  C74.167,74,77.739,66.631,77.739,58.426 M67.642,71.121c0-5.135-1.925-7.867-5.883-8.355c-0.743-0.093-1.918-0.137-3.588-0.137  c-2.734,0-5.847,0.126-5.878,0.127c-0.773,0.031-1.384,0.667-1.384,1.441v2.308c0,0.797,0.646,1.442,1.442,1.442  c1.192,0,2.249-0.007,3.191-0.013c0.748-0.005,1.422-0.011,2.03-0.011c4.389,0,4.479,0.221,4.983,1.441  c0.489,1.174,0.505,4.661,0.341,8.22c-3.676,2.475-8.099,3.922-12.854,3.922c-4.755,0-9.178-1.447-12.854-3.922  c-0.167-3.559-0.148-7.046,0.338-8.22c0.505-1.221,0.595-1.441,4.985-1.441c0.609,0,1.283,0.006,2.031,0.011  c0.939,0.006,1.999,0.013,3.191,0.013c0.796,0,1.442-0.646,1.442-1.442v-2.308c0-0.774-0.61-1.41-1.384-1.441  c-0.031-0.001-3.146-0.127-5.878-0.127c-1.673,0-2.845,0.044-3.589,0.137c-3.96,0.488-5.882,3.221-5.882,8.355  c0,0.757-0.023,1.468-0.059,2.139c-3.379-4.014-5.423-9.187-5.423-14.833c0-8.929,5.104-16.673,12.543-20.511  c0.101,0.012,0.202,0.029,0.309,0.019c0.009,0,0.8-0.086,2.035-0.086c3.232,0,9.212,0.558,12.941,4.288  c0.458,0.456,1.166,1.063,2.04,1.063c0.562,0,1.084-0.255,1.436-0.699c0.267-0.337,0.433-0.81,0.501-1.417  c1.697,1.529,3.362,3.199,3.831,4.14c0.293,0.587,0.886,0.9,1.472,0.924c0.704,0,1.437-0.059,2.741-3.53  c3.899,4.135,6.311,9.69,6.311,15.81c0,5.646-2.044,10.819-5.425,14.833C67.664,72.588,67.642,71.877,67.642,71.121"/>
</svg>