<svg xmlns="http://www.w3.org/2000/svg" xmlns:xlink="http://www.w3.org/1999/xlink" version="1.1" id="Layer_1" x="0px" y="0px" width="100px" height="99.864px" viewBox="0 0 100 99.864" enable-background="new 0 0 100 99.864" xml:space="preserve">
<path fill="#000000" d="M40.079,49.018c-2.232,0-4.039,1.808-4.039,4.039s1.807,4.039,4.039,4.039s4.039-1.808,4.039-4.039  S42.312,49.018,40.079,49.018"/>
<path fill="#000000" d="M59.697,57.096c2.231,0,4.039-1.808,4.039-4.039s-1.808-4.039-4.039-4.039s-4.039,1.808-4.039,4.039  S57.466,57.096,59.697,57.096"/>
<path fill="#000000" d="M72.969,58.694c0,0.609-0.046,1.209-0.092,1.806c-0.613-0.262-1.257-0.396-1.919-0.396  c-2.109,0-3.928,1.361-4.961,2.337c-1.097-0.974-2.379-1.48-3.767-1.48c-1.928,0-3.608,0.979-4.471,1.589  c-1.002-0.403-2.024-0.608-3.051-0.608c-2.179,0-3.884,0.922-4.838,1.596c-1.331-1.021-2.924-1.558-4.663-1.558  c-1.397,0-2.597,0.343-3.3,0.6c-1.396-0.917-2.836-1.384-4.291-1.384c-1.631,0-2.93,0.595-3.755,1.113  c-1.899-2.008-4.003-2.459-5.515-2.459c-0.544,0-1.035,0.059-1.473,0.143c-0.025-0.431-0.066-0.859-0.066-1.297  c0-0.827,0.048-1.643,0.133-2.447c-2.618,1.765-4.383,2.838-4.636,2.991c-0.029,0.018-0.062,0.024-0.092,0.038  c0.025,1.208,0.113,2.4,0.288,3.565c-0.609,0.771-1.149,1.716-1.363,2.813c-0.285,1.456,0.032,2.894,0.945,4.279  c-0.31,2.311,0.13,6.129,3.563,7.499c0.251,2.702,1.714,6.663,5.949,7.172c0.679,2.452,2.648,5.953,6.607,5.953  c0.292,0,0.594-0.019,0.896-0.057c0.949,0.775,3.267,2.369,6.348,2.369c1.523,0,3.025-0.391,4.474-1.161  c1.619,0.634,3.145,0.956,4.538,0.956h0.001c3.735,0,5.629-2.209,6.405-3.467c0.28,0.029,0.556,0.043,0.823,0.043  c3.732,0,5.647-2.788,6.352-4.816c4.271-0.485,5.742-4.463,5.994-7.177c3.436-1.37,3.874-5.19,3.563-7.501  c1.054-1.632,1.006-3.061,0.759-4.001c-0.219-0.836-0.667-1.57-1.204-2.209c0.253-1.424,0.385-2.89,0.41-4.379  c-0.521-0.318-2.278-1.406-4.753-3.081C72.906,56.939,72.969,57.808,72.969,58.694 M49.889,77.159c-5.381,0-9.691-3.354-11.54-8.078  h23.08C59.58,73.804,55.269,77.159,49.889,77.159"/>
<path fill="#000000" d="M77.378,25.547c-3.344-5.386-9.031-9.027-16.941-10.905c-0.198,4.229-3.726,12.537-5.429,15.354  c-0.268,0.444-0.552,0.889-0.845,1.33c-0.806,1.215-1.699,2.419-2.657,3.611c0.229,0.267,0.477,0.529,0.713,0.794  c6.13,6.862,14.283,13.108,19.963,17.087c2.26,1.582,4.117,2.804,5.299,3.559c0.077,0.05,0.173,0.11,0.243,0.157  C79.377,52.065,84.25,36.614,77.378,25.547"/>
<path fill="#000000" d="M50.093,13.245c-0.069,0-0.139-0.001-0.207-0.001c-2.897,0.142-5.586,0.458-8.086,0.922  c-0.378,0.07-0.764,0.136-1.132,0.212c-0.377,0.081-0.738,0.174-1.104,0.261c-7.901,1.876-13.595,5.52-16.941,10.909  c-6.872,11.066-2,26.518-0.346,30.987c0-0.002,0.005-0.004,0.007-0.007c1.12-0.712,2.987-1.931,5.264-3.519  c5.69-3.97,14.015-10.313,20.244-17.29c0.233-0.261,0.477-0.521,0.703-0.781c0.26-0.3,0.512-0.6,0.762-0.899  c0.253-0.307,0.501-0.611,0.744-0.918c0.544-0.686,1.062-1.377,1.552-2.068c0.529-0.749,1.027-1.498,1.481-2.25  c2.674-4.424,5.244-12.579,5.165-14.632C55.693,13.704,52.998,13.388,50.093,13.245"/>
</svg>