<svg xmlns="http://www.w3.org/2000/svg" xmlns:xlink="http://www.w3.org/1999/xlink" version="1.1" id="Layer_1" x="0px" y="0px" width="100px" height="99.864px" viewBox="0 0 100 99.864" enable-background="new 0 0 100 99.864" xml:space="preserve">
<path fill="#000000" d="M44.273,53.202c0,2.23-1.808,4.039-4.038,4.039c-2.231,0-4.039-1.809-4.039-4.039  c0-2.232,1.808-4.04,4.039-4.04C42.465,49.162,44.273,50.969,44.273,53.202"/>
<path fill="#000000" d="M63.891,53.202c0,2.23-1.807,4.039-4.039,4.039c-2.23,0-4.039-1.809-4.039-4.039  c0-2.232,1.809-4.04,4.039-4.04C62.084,49.162,63.891,50.969,63.891,53.202"/>
<path fill="#000000" d="M38.492,68.763c1.849,4.727,6.16,8.078,11.54,8.078c5.382,0,9.693-3.352,11.541-8.078H38.492z"/>
<path fill="#000000" d="M51.469,30.72c0-0.013,0.006-0.024,0.006-0.038v-5.931l10.479,1.833c0.061,0.011,0.127,0.018,0.188,0.021  c0,0,0.162,0.007,0.428,0.007c2.602,0,4.322-0.535,5.113-1.592c0.482-0.643,0.561-1.448,0.205-2.155  c-0.84-1.678-4.133-2.389-5.336-2.389c-0.457,0.003-7.742,0.775-12.043,1.233c-0.063,0.007-0.118,0.039-0.176,0.055  c-0.099-0.024-0.193-0.062-0.3-0.062c-0.155,0-0.3,0.043-0.439,0.089c-0.092-0.027-0.176-0.07-0.272-0.081  c-4.303-0.458-11.585-1.23-12.076-1.233c-1.17,0-4.465,0.711-5.306,2.389c-0.352,0.707-0.277,1.513,0.205,2.155  c0.793,1.057,2.516,1.592,5.116,1.592c0.264,0,0.426-0.007,0.426-0.007c0.061-0.003,0.126-0.01,0.189-0.021l10.715-1.875v5.973  c0,0.014,0.007,0.025,0.01,0.038c-14.631,0.745-26.263,12.844-26.263,27.658c0,15.296,12.4,27.696,27.695,27.696  c15.298,0,27.697-12.4,27.697-27.696C77.729,43.563,66.098,31.465,51.469,30.72 M68.793,44.986h-8.012  c-0.336-1.947-1.467-5.528-5.168-8.978C61.006,37.355,65.646,40.592,68.793,44.986 M49.852,35.336  c5.835,3.383,7.517,7.511,7.992,9.65H41.86C42.333,42.848,44.014,38.719,49.852,35.336 M43.947,36.14  c-3.591,3.407-4.692,6.924-5.021,8.847h-7.652C34.32,40.729,38.769,37.558,43.947,36.14 M50.032,81.458  c-12.726,0-23.08-10.354-23.08-23.081c0-3.785,0.934-7.352,2.557-10.506h29.947h0.027h11.074c1.623,3.155,2.555,6.721,2.555,10.506  C73.111,71.105,62.758,81.458,50.032,81.458"/>
<path fill="#000000" d="M38.503,68.781c1.849,4.725,6.16,8.076,11.54,8.076c5.38,0,9.691-3.352,11.541-8.076H38.503z"/>
</svg>
