<svg xmlns="http://www.w3.org/2000/svg" xmlns:xlink="http://www.w3.org/1999/xlink" version="1.1" id="Layer_1" x="0px" y="0px" width="100px" height="99.864px" viewBox="0 0 100 99.864" enable-background="new 0 0 100 99.864" xml:space="preserve">
<g>
	<path fill="#000000" d="M38.458,68.706c1.851,4.726,6.16,8.078,11.54,8.078s9.692-3.353,11.54-8.078H38.458z"/>
	<path fill="#000000" d="M40.189,49.087c-2.231,0-4.039,1.808-4.039,4.039s1.808,4.039,4.039,4.039c2.233,0,4.039-1.808,4.039-4.039   S42.423,49.087,40.189,49.087"/>
	<path fill="#000000" d="M59.808,49.087c-2.231,0-4.039,1.808-4.039,4.039s1.808,4.039,4.039,4.039c2.233,0,4.038-1.808,4.038-4.039   S62.041,49.087,59.808,49.087"/>
	<path fill="#000000" d="M31.534,81.977c0,1.594-1.291,2.885-2.885,2.885s-2.885-1.291-2.885-2.885s1.291-2.885,2.885-2.885   S31.534,80.383,31.534,81.977"/>
	<path fill="#000000" d="M30.071,86.947c-0.455,0.131-0.926,0.223-1.42,0.223c-2.488,0-4.566-1.759-5.073-4.096   c-6.169,6.385-8.373,15.694-4.735,14.482c3.462-1.154,2.995,2.308,10.386,2.308C31.412,99.864,28.429,92.617,30.071,86.947"/>
	<path fill="#000000" d="M68.462,81.977c0,1.594,1.292,2.885,2.886,2.885c1.593,0,2.885-1.291,2.885-2.885s-1.292-2.885-2.885-2.885   C69.754,79.092,68.462,80.383,68.462,81.977"/>
	<path fill="#000000" d="M69.927,86.947c0.456,0.131,0.925,0.223,1.421,0.223c2.488,0,4.566-1.759,5.071-4.096   c6.171,6.385,8.375,15.694,4.737,14.482c-3.462-1.154-2.995,2.308-10.386,2.308C68.584,99.864,71.568,92.617,69.927,86.947"/>
	<path fill="#000000" d="M50,29.47C28.272,19.178,11.085,53.073,26.49,77.268c0.66-0.303,1.388-0.484,2.161-0.484   c2.409,0,4.427,1.66,5.006,3.893c4.582,3.354,10.229,5.34,16.343,5.34c6.113,0,11.759-1.986,16.339-5.34   c0.584-2.232,2.597-3.893,5.011-3.893c0.772,0,1.499,0.182,2.159,0.484C88.912,53.073,71.724,19.178,50,29.47 M68.638,71.875   C64.437,77.636,57.657,81.4,50,81.4c-7.66,0-14.438-3.764-18.64-9.524c2.099-14.652,0.048-16.884-0.978-25.096   c0,0,19.617-2.308,19.617-8.078c0,5.771,19.618,8.078,19.618,8.078C68.591,54.992,66.542,57.223,68.638,71.875"/>
</g>
</svg>